<svg xmlns="http://www.w3.org/2000/svg" viewBox="0 0 489.42 489.42" xmlns:v="https://vecta.io/nano"><path d="M46.1 138.368c4.2 2.1 16.1 8.4 29.1-6.2 5.2-7.3 10.4-14.6 16.6-21.8 7.3-8.3 6.2-21.8-2.1-29.1s-21.8-6.2-29.1 2.1-14.6 17.7-20.8 27c-6.1 9.3-3 21.7 6.3 28zm202.9-97.8c19.8 0 39.5 3.1 58.3 9.4 12.6 3.7 21.8-4.2 26-12.5 3.1-11.4-3.1-22.9-13.5-26-22.9-7.3-45.8-11.4-69.7-11.4-11.4 0-20.8 8.3-20.8 19.8s8.3 20.7 19.7 20.7zm185.2 126.9c7.3 17.7 11.4 36.4 13.5 55.1 0 0 1.2 23.2 22.9 19.8 21.5-2.8 18.7-23.9 18.7-23.9-2.1-22.9-8.3-45.8-16.6-66.6-5.2-10.4-16.6-15.6-27-11.4-10.5 5.2-15.7 16.6-11.5 27z"/><path d="M359.3 75.968c16.6 11.4 31.2 25 43.7 40.6 9.3 11.6 25 6.8 28.1 3.1 8.3-7.3 10.4-20.8 3.1-29.1-14.6-17.7-32.3-34.3-52-47.9-9.4-6.2-21.8-4.2-28.1 5.2s-4.2 21.8 5.2 28.1zm-224.7-3.2c16.6-10.4 35.4-18.7 54.1-23.9 11.4-3.1 17.7-14.6 14.6-25-3.1-11.4-14.6-17.7-25-14.6-22.9 6.2-44.7 15.6-64.5 28.1-9.4 6.2-12.5 18.7-6.2 28.1 4.1 6.3 12.9 12.5 27 7.3zm333.9 195.6c-11.4-3.1-21.8 4.2-23.9 15.6-2.1 9.4-8.5 31.3-8.6 33.4-27.5 71.5-93.5 121.8-169.3 129.9-74.6 7.8-147.2-25.9-189.3-86.5l38.5 8.5c10.4 2.1 21.8-4.2 23.9-15.6 2.1-10.4-4.2-21.8-15.6-23.9l-81.1-17.7c-5.2-1-21.4 0-25 15.6l-17.7 82.2c-2.1 10.4 4.2 21.8 15.6 23.9 12.7 1.3 21.8-6.2 25-16.6l6.2-28.2c46.3 62.7 129.9 109.1 223.7 99 94.6-10.2 174.8-73.9 206-163.3 1-2.6 5.7-24.4 7.3-32.3 3.1-11.5-4.2-21.9-15.7-24zm-303.9-3.1h95.9c11.4 0 19.8-9.4 20.8-20.8v-142.2c0-11.4-9.4-20.8-20.8-20.8s-20.8 9.4-20.8 20.8v121.4h-75.1c-11.4 0-20.8 9.4-20.8 20.8s9.3 20.8 20.8 20.8z"/></svg>